<svg xmlns="http://www.w3.org/2000/svg" width="24" height="24"><defs><radialGradient id="a" cx="50%" cy="50%" r="60%"><stop offset="0%" stop-color="#58a6ff"/><stop offset="100%" stop-color="#1f6feb"/></radialGradient><filter id="b" width="140%" height="140%" x="-20%" y="-20%"><feDropShadow dx="0" dy="1" flood-color="#000" flood-opacity=".4" stdDeviation="1"/></filter></defs><path fill="url(#a)" stroke="#fff" stroke-width="1.2" d="M19.4 12a7.4 7.4 0 0 0-.3-1.5l2.1-1.6-2-3.5-2.4.9a7.4 7.4 0 0 0-1.3-.8L15 2H9l-.5 2.5a7.4 7.4 0 0 0-1.3.8l-2.4-.9-2 3.5 2.1 1.6a7.4 7.4 0 0 0-.3 1.5 7.4 7.4 0 0 0 .3 1.5L2.7 15l2 3.5 2.4-.9c.4.3.9.6 1.3.8L9 22h6l.5-2.5c.5-.2.9-.5 1.3-.8l2.4.9 2-3.5-2.1-1.6c.2-.5.3-1 .3-1.5z" filter="url(#b)"/><circle cx="12" cy="12" r="2.5" fill="none" stroke="#fff" stroke-width="1.5" filter="url(#b)"/></svg>